Coordinates
version=1
nRows=10
nColumns=40
inDegrees=yes

Units are S.I. units (second, meters, Newtons, ...)
Angles are in degrees.

endheader
time	pelvis_tilt	pelvis_list	pelvis_rotation	pelvis_tx	pelvis_ty	pelvis_tz	hip_flexion_r	hip_adduction_r	hip_rotation_r	knee_angle_r	knee_angle_r_beta	ankle_angle_r	subtalar_angle_r	mtp_angle_r	hip_flexion_l	hip_adduction_l	hip_rotation_l	knee_angle_l	knee_angle_l_beta	ankle_angle_l	subtalar_angle_l	mtp_angle_l	lumbar_extension	lumbar_bending	lumbar_rotation	arm_flex_r	arm_add_r	arm_rot_r	elbow_flex_r	pro_sup_r	wrist_flex_r	wrist_dev_r	arm_flex_l	arm_add_l	arm_rot_l	elbow_flex_l	pro_sup_l	wrist_flex_l	wrist_dev_l
     39.66000000	     -4.59717099	     -4.34082542	      1.74025032	      1.01210246	      0.91809016	      0.56380610	     16.56802100	      4.74637947	     -9.69827717	     26.28569971	     26.28569971	     15.95655604	     -8.27221201	     -0.52084812	     25.11301459	    -16.97697811	      1.70432163	     58.75352750	     58.75352750	      0.67973041	    -17.86513514	     -1.90538238	    -10.60844645	      4.94696882	     -0.48638255	      6.68853879	    -16.02969576	    -11.24286273	     28.75362350	     45.96121042	      0.00000000	      0.00000000	      7.68409092	     -8.57427075	     -5.88360497	     27.40279874	     45.58376219	      0.00000000	      0.00000000
     39.68192857	     -4.24145962	     -4.39335364	      2.50644596	      1.01145603	      0.91496148	      0.56571890	     16.94346859	      4.89585050	     -9.62500717	     28.15525042	     28.15525042	     16.74664943	    -10.02136248	     -0.63747049	     26.73333363	    -16.94404401	      2.47601462	     61.24278127	     61.24278127	      0.88018408	    -18.56308490	      0.07619965	    -10.71576810	      4.89031831	     -0.45810809	      9.66936042	    -15.91476008	    -11.25738306	     29.96258685	     45.94384873	      0.00000000	      0.00000000	      5.41322200	     -8.20434189	     -5.39098053	     25.56147249	     45.48490108	      0.00000000	      0.00000000
     39.70385714	     -3.77040246	     -4.46873183	      3.33291349	      1.01078430	      0.91222110	      0.56742470	     17.02505489	      5.04466348	     -9.79415946	     29.74958537	     29.74958537	     17.74146091	    -11.23085932	     -0.08547165	     28.34988082	    -16.68716143	      3.50611517	     63.76921033	     63.76921033	      3.31197276	    -18.71316978	      7.74709653	    -10.99839628	      4.90713777	     -0.20234228	     12.76526443	    -16.01761529	    -11.00526743	     31.06013231	     45.92600298	      0.00000000	      0.00000000	      3.06158746	     -7.93808646	     -3.88963974	     24.24342643	     45.23042408	      0.00000000	      0.00000000
     39.72578571	     -3.34384915	     -4.53208557	      4.16636308	      1.01009430	      0.90976060	      0.56909646	     17.04092948	      5.17411909	    -10.06119159	     31.13917677	     31.13917677	     18.66870745	    -12.18635381	      0.47312764	     29.72399001	    -16.58141112	      4.18704820	     65.48731731	     65.48731731	      4.96200049	    -18.95454731	     12.36638176	    -11.21657164	      4.91837838	      0.00871146	     15.79650618	    -16.13981142	    -10.76131148	     32.76107798	     45.88393481	      0.00000000	      0.00000000	      0.37352096	     -7.84986228	     -1.84726886	     23.74606228	     44.86966890	      0.00000000	      0.00000000
     39.74771429	     -2.94713848	     -4.61798826	      5.01325661	      1.00936882	      0.90786528	      0.57054346	     16.88064408	      5.34586285	    -10.37849755	     32.10649568	     32.10649568	     19.40191701	    -13.02973599	      0.96622450	     30.87061028	    -16.53483094	      4.69577010	     66.42844494	     66.42844494	      6.54091109	    -19.15501765	     15.82265387	    -11.40798806	      4.97870900	      0.22723561	     18.85527340	    -16.26638466	    -10.59424584	     34.58610666	     45.83918044	      0.00000000	      0.00000000	     -2.25915562	     -7.85856641	      0.41067230	     23.57448834	     44.46498247	      0.00000000	      0.00000000
     39.76964286	     -2.61983667	     -4.69577976	      5.89194480	      1.00857523	      0.90674733	      0.57170816	     16.55112214	      5.50663227	    -10.78943048	     32.59087365	     32.59087365	     19.80577639	    -13.71184158	      1.01367356	     31.73738967	    -16.57259323	      4.92823641	     66.36970721	     66.36970721	      7.41418847	    -19.30202470	     16.34042176	    -11.52605297	      5.04545435	      0.48027497	     21.93631454	    -16.40596346	    -10.69268562	     36.34568333	     45.79968642	      0.00000000	      0.00000000	     -4.41379270	     -7.62987915	      0.98049615	     22.78093060	     44.33270762	      0.00000000	      0.00000000
     39.79157143	     -2.48756190	     -4.66349499	      6.73342894	      1.00761430	      0.90644038	      0.57241244	     16.20214263	      5.49378563	    -11.28890230	     32.64056407	     32.64056407	     20.02910000	    -14.06450471	      1.03873101	     32.44665827	    -16.42712450	      4.95151291	     65.37513960	     65.37513960	      8.33484530	    -19.40741015	     16.37167088	    -11.41249357	      4.94302768	      1.70696803	     24.41725926	    -17.29647491	    -10.82443715	     37.37344906	     45.78633049	      0.00000000	      0.00000000	     -5.89071674	     -7.45243232	      1.08636626	     22.32679491	     44.28593189	      0.00000000	      0.00000000
     39.81350000	     -2.24929575	     -4.62931228	      7.65550414	      1.00648227	      0.90713154	      0.57254397	     15.50101316	      5.50351967	    -11.82993602	     32.22475773	     32.22475773	     20.20764983	    -14.30539379	      1.34919311	     32.86660441	    -16.14933404	      5.01820820	     63.67764142	     63.67764142	      9.70371595	    -19.40301521	     17.50392734	    -11.55940040	      5.01576341	      1.06723408	     27.95377438	    -16.87507160	    -10.84501361	     40.01710534	     45.70902235	      0.00000000	      0.00000000	     -8.24932957	     -7.26123036	      1.91159819	     22.17636638	     44.07350971	      0.00000000	      0.00000000
     39.83542857	     -2.32351134	     -4.47209404	      8.54826054	      1.00502205	      0.90829484	      0.57219660	     15.04270688	      5.27224164	    -12.49102330	     31.65819182	     31.65819182	     20.32553108	    -14.19561567	      1.84615629	     33.28624577	    -15.56551641	      5.02687661	     61.13695831	     61.13695831	     11.01866682	    -19.37455475	     18.71894996	    -11.35085663	      4.88063034	      1.74203653	     30.12813665	    -17.73320385	    -10.37538210	     43.34307049	     45.64364866	      0.00000000	      0.00000000	    -11.48039433	     -9.74630742	     17.39077424	     27.51725036	     42.06312672	      0.00000000	      0.00000000
     39.85735714	     -2.68561005	     -4.27978458	      9.41961511	      1.00320529	      0.90982265	      0.57144122	     14.75243835	      4.98125189	    -13.09497182	     30.76773801	     30.76773801	     20.14607234	    -14.23123305	      2.09077979	     33.69655171	    -14.83166713	      4.94960263	     57.77660575	     57.77660575	     11.69959485	    -19.28150969	     18.72399103	    -10.84545988	      4.62751996	      2.46202443	     32.94431997	    -18.59952015	    -10.52045672	     44.61053483	     45.62234342	      0.00000000	      0.00000000	    -12.55604639	     -9.53264494	     17.49330178	     27.36149179	     42.04264003	      0.00000000	      0.00000000
